# xmcd
#
# Track frame offsets: 
#        150
#        28303
#        46783
#        63764
#        84401
#        102211
#        131481
#        147581
#        171728
#        198523
#        218148
#        230843
#        251524
#        268900
#        300978
#        342209
#
# Disc length: 4774 seconds
#
# Revision: 0
# Processed by: cddbd v1.5.1PL2 Copyright (c) Steve Scherf et al.
# Submitted via: ExactAudioCopy v0.95b3
#
DISCID=ee12a410
DTITLE=Mark Knopfler - The Ragpicker's Dream
DYEAR=1900
DGENRE=Blues
TTITLE0=Why Aye Man
TTITLE1=Devil Baby
TTITLE2=Hill Farmer's Blues
TTITLE3=A Place Where We Used To Live
TTITLE4=Quality Shoe
TTITLE5=Fare Thee Well Northumberland
TTITLE6=Marbletown
TTITLE7=You Don't Know You're Born
TTITLE8=Coyote
TTITLE9=The Ragpicker's Dream
TTITLE10=Daddy's Gone To Knoxville
TTITLE11=Old Pigweed
TTITLE12=Quality Shoe (Live)
TTITLE13=Sailing To Philadelphia (Live)
TTITLE14=Why Aye Man (Live)
TTITLE15=Why Aye Man (Live Video)
EXTD=
EXTT0=
EXTT1=
EXTT2=
EXTT3=
EXTT4=
EXTT5=
EXTT6=
EXTT7=
EXTT8=
EXTT9=
EXTT10=
EXTT11=
EXTT12=
EXTT13=
EXTT14=
EXTT15=
PLAYORDER=
